<svg xmlns="http://www.w3.org/2000/svg" viewBox="0 0 900 720" role="img" aria-label="Green Leaf product placeholder">
  <defs>
    <linearGradient id="bg" x1="0" x2="1" y1="0" y2="1">
      <stop offset="0" stop-color="#f6f8f0"/>
      <stop offset="1" stop-color="#e7eedf"/>
    </linearGradient>
    <linearGradient id="box" x1="0" x2="1" y1="0" y2="1">
      <stop offset="0" stop-color="#ffffff"/>
      <stop offset="1" stop-color="#eef3e7"/>
    </linearGradient>
  </defs>
  <rect width="900" height="720" fill="url(#bg)"/>
  <path d="M0 520 C170 460 270 610 450 540 C620 475 700 505 900 430 L900 720 L0 720 Z" fill="#d9e6d0"/>
  <rect x="250" y="190" width="400" height="310" rx="24" fill="url(#box)" stroke="#c9d7c1" stroke-width="8"/>
  <path d="M332 294 h236 M332 354 h172 M332 414 h236" stroke="#a9bba2" stroke-width="20" stroke-linecap="round"/>
  <path d="M514 204 C494 132 422 102 358 120 C357 189 399 243 467 253 C432 259 390 282 356 329" fill="none" stroke="#2e6f4a" stroke-width="18" stroke-linecap="round" stroke-linejoin="round"/>
  <circle cx="587" cy="263" r="38" fill="#aac467"/>
  <text x="450" y="596" text-anchor="middle" font-family="Inter, Arial, sans-serif" font-size="34" font-weight="800" fill="#153b28">Product image pending</text>
</svg>
